<svg xmlns="http://www.w3.org/2000/svg" viewBox="0 0 200 100" width="300" height="150">
  <rect x="10" y="10" width="180" height="80" fill="white" stroke="#333" stroke-width="2"/>
  <g fill="#333">
    <rect x="20" y="20" width="4" height="60"/>
    <rect x="28" y="20" width="2" height="60"/>
    <rect x="34" y="20" width="6" height="60"/>
    <rect x="44" y="20" width="2" height="60"/>
    <rect x="50" y="20" width="4" height="60"/>
    <rect x="58" y="20" width="8" height="60"/>
    <rect x="70" y="20" width="2" height="60"/>
    <rect x="76" y="20" width="6" height="60"/>
    <rect x="86" y="20" width="4" height="60"/>
    <rect x="94" y="20" width="2" height="60"/>
    <rect x="100" y="20" width="8" height="60"/>
    <rect x="112" y="20" width="4" height="60"/>
    <rect x="120" y="20" width="6" height="60"/>
    <rect x="130" y="20" width="2" height="60"/>
    <rect x="136" y="20" width="4" height="60"/>
    <rect x="144" y="20" width="8" height="60"/>
    <rect x="156" y="20" width="2" height="60"/>
    <rect x="162" y="20" width="6" height="60"/>
    <rect x="172" y="20" width="4" height="60"/>
  </g>
  <rect x="10" y="50" width="180" height="2" fill="red" opacity="0.6">
    <animate attributeName="y" values="20;80;20" dur="2s" repeatCount="indefinite" />
  </rect>
</svg>
